name p10_grf_mean_speed_1.4
datacolumns 13
datarows 62
range 0.0000000000 0.6100000000
endheader
time	grf_x_l_mean	grf_x_l_var	grf_y_l_mean	grf_y_l_var	grf_z_l_mean	grf_z_l_var	grf_x_r_mean	grf_x_r_var	grf_y_r_mean	grf_y_r_var	grf_z_r_mean	grf_z_r_var
0.0000000000	139.5851149137	1.0000000000	1131.2097943373	1.0000000000	0.0000000000	0.0000000000	19.4581053758	1.0000000000	11.4834072980	1.0000000000	0.0000000000	0.0000000000
0.0100000000	157.2455780957	1.0000000000	1123.7677118456	1.0000000000	0.0000000000	0.0000000000	33.8381565729	1.0000000000	59.0410518140	1.0000000000	0.0000000000	0.0000000000
0.0200000000	177.6034850120	1.0000000000	1103.8348559638	1.0000000000	0.0000000000	0.0000000000	46.3890097710	1.0000000000	139.1098440153	1.0000000000	0.0000000000	0.0000000000
0.0300000000	199.0878130384	1.0000000000	1067.8552792006	1.0000000000	0.0000000000	0.0000000000	45.4668028357	1.0000000000	246.4100814969	1.0000000000	0.0000000000	0.0000000000
0.0400000000	217.9580394257	1.0000000000	1010.6732340513	1.0000000000	0.0000000000	0.0000000000	21.2468315330	1.0000000000	364.8788121509	1.0000000000	0.0000000000	0.0000000000
0.0500000000	230.2797300194	1.0000000000	928.8417990479	1.0000000000	0.0000000000	0.0000000000	-17.5375282713	1.0000000000	479.3583034283	1.0000000000	0.0000000000	0.0000000000
0.0600000000	234.8558256933	1.0000000000	822.9234090101	1.0000000000	0.0000000000	0.0000000000	-55.4172228093	1.0000000000	581.6181300810	1.0000000000	0.0000000000	0.0000000000
0.0700000000	226.3545641572	1.0000000000	696.0614160829	1.0000000000	0.0000000000	0.0000000000	-87.9614855945	1.0000000000	668.9657565029	1.0000000000	0.0000000000	0.0000000000
0.0800000000	201.1985656098	1.0000000000	554.8067537767	1.0000000000	0.0000000000	0.0000000000	-116.1258936781	1.0000000000	741.7583260476	1.0000000000	0.0000000000	0.0000000000
0.0900000000	162.8535490057	1.0000000000	411.5624623128	1.0000000000	0.0000000000	0.0000000000	-136.9407103405	1.0000000000	805.4220041749	1.0000000000	0.0000000000	0.0000000000
0.1000000000	115.7156226199	1.0000000000	281.7493163420	1.0000000000	0.0000000000	0.0000000000	-152.8246136214	1.0000000000	868.6544457595	1.0000000000	0.0000000000	0.0000000000
0.1100000000	66.8663699545	1.0000000000	175.8086950846	1.0000000000	0.0000000000	0.0000000000	-165.6256315483	1.0000000000	934.5285087558	1.0000000000	0.0000000000	0.0000000000
0.1200000000	28.5675397760	1.0000000000	97.8109820975	1.0000000000	0.0000000000	0.0000000000	-172.6807360581	1.0000000000	999.7564463964	1.0000000000	0.0000000000	0.0000000000
0.1300000000	3.0656180599	1.0000000000	47.4189725037	1.0000000000	0.0000000000	0.0000000000	-173.4649562989	1.0000000000	1060.3344848111	1.0000000000	0.0000000000	0.0000000000
0.1400000000	-11.4299897822	1.0000000000	19.5814162616	1.0000000000	0.0000000000	0.0000000000	-170.9252976893	1.0000000000	1111.7836491023	1.0000000000	0.0000000000	0.0000000000
0.1500000000	-14.5448034496	1.0000000000	5.3244639913	1.0000000000	0.0000000000	0.0000000000	-163.4022099854	1.0000000000	1147.6919851368	1.0000000000	0.0000000000	0.0000000000
0.1600000000	0.0000000000	1.0000000000	0.0000000000	1.0000000000	0.0000000000	0.0000000000	-150.9618311712	1.0000000000	1164.3661938821	1.0000000000	0.0000000000	0.0000000000
0.1700000000	0.0000000000	1.0000000000	0.0000000000	1.0000000000	0.0000000000	0.0000000000	-137.0245100357	1.0000000000	1163.3906087223	1.0000000000	0.0000000000	0.0000000000
0.1800000000	0.0000000000	1.0000000000	0.0000000000	1.0000000000	0.0000000000	0.0000000000	-122.0012764850	1.0000000000	1147.3039497142	1.0000000000	0.0000000000	0.0000000000
0.1900000000	0.0000000000	1.0000000000	0.0000000000	1.0000000000	0.0000000000	0.0000000000	-105.1960090160	1.0000000000	1117.2312791500	1.0000000000	0.0000000000	0.0000000000
0.2000000000	0.0000000000	1.0000000000	0.0000000000	1.0000000000	0.0000000000	0.0000000000	-89.3089041715	1.0000000000	1074.7208515689	1.0000000000	0.0000000000	0.0000000000
0.2100000000	0.3386675625	1.0000000000	0.0299697597	1.0000000000	0.0000000000	0.0000000000	-74.2708995485	1.0000000000	1023.5047989311	1.0000000000	0.0000000000	0.0000000000
0.2200000000	1.2944353520	1.0000000000	0.4477887806	1.0000000000	0.0000000000	0.0000000000	-59.7814461519	1.0000000000	968.4291910935	1.0000000000	0.0000000000	0.0000000000
0.2300000000	0.2490888748	1.0000000000	0.1145332207	1.0000000000	0.0000000000	0.0000000000	-47.4988846447	1.0000000000	912.9513637523	1.0000000000	0.0000000000	0.0000000000
0.2400000000	0.0000000000	1.0000000000	0.0000000000	1.0000000000	0.0000000000	0.0000000000	-36.9495709793	1.0000000000	858.9062323938	1.0000000000	0.0000000000	0.0000000000
0.2500000000	0.5334343031	1.0000000000	0.0038635161	1.0000000000	0.0000000000	0.0000000000	-27.3585321057	1.0000000000	808.6338099218	1.0000000000	0.0000000000	0.0000000000
0.2600000000	0.0000000000	1.0000000000	0.0000000000	1.0000000000	0.0000000000	0.0000000000	-19.4051373617	1.0000000000	764.9284287180	1.0000000000	0.0000000000	0.0000000000
0.2700000000	0.0000000000	1.0000000000	0.0000000000	1.0000000000	0.0000000000	0.0000000000	-12.8217367595	1.0000000000	729.0530126098	1.0000000000	0.0000000000	0.0000000000
0.2800000000	0.0000000000	1.0000000000	0.0000000000	1.0000000000	0.0000000000	0.0000000000	-6.7066567809	1.0000000000	701.3619466464	1.0000000000	0.0000000000	0.0000000000
0.2900000000	0.1972018891	1.0000000000	0.0294247944	1.0000000000	0.0000000000	0.0000000000	-1.7645397235	1.0000000000	682.1245421119	1.0000000000	0.0000000000	0.0000000000
0.3000000000	0.0000000000	1.0000000000	0.0000000000	1.0000000000	0.0000000000	0.0000000000	2.8213974910	1.0000000000	670.9938235021	1.0000000000	0.0000000000	0.0000000000
0.3100000000	0.0000000000	1.0000000000	0.0000000000	1.0000000000	0.0000000000	0.0000000000	7.3150312202	1.0000000000	667.6913083342	1.0000000000	0.0000000000	0.0000000000
0.3200000000	0.0000000000	1.0000000000	0.0000000000	1.0000000000	0.0000000000	0.0000000000	11.0411451049	1.0000000000	672.3634088564	1.0000000000	0.0000000000	0.0000000000
0.3300000000	0.0000000000	1.0000000000	0.0000000000	1.0000000000	0.0000000000	0.0000000000	15.0895716082	1.0000000000	684.4949139340	1.0000000000	0.0000000000	0.0000000000
0.3400000000	0.0000000000	1.0000000000	0.0000000000	1.0000000000	0.0000000000	0.0000000000	20.4091241102	1.0000000000	703.6854814101	1.0000000000	0.0000000000	0.0000000000
0.3500000000	0.0000000000	1.0000000000	0.0000000000	1.0000000000	0.0000000000	0.0000000000	25.8747018705	1.0000000000	730.7492787968	1.0000000000	0.0000000000	0.0000000000
0.3600000000	-0.6256843387	1.0000000000	0.2163347091	1.0000000000	0.0000000000	0.0000000000	32.0827711276	1.0000000000	765.3837636160	1.0000000000	0.0000000000	0.0000000000
0.3700000000	-0.3884359213	1.0000000000	0.2393471576	1.0000000000	0.0000000000	0.0000000000	39.6800929626	1.0000000000	805.4110613372	1.0000000000	0.0000000000	0.0000000000
0.3800000000	-0.2954731913	1.0000000000	0.2301752014	1.0000000000	0.0000000000	0.0000000000	47.5485594821	1.0000000000	848.7749059611	1.0000000000	0.0000000000	0.0000000000
0.3900000000	-0.6659145588	1.0000000000	0.6996180482	1.0000000000	0.0000000000	0.0000000000	55.6429528714	1.0000000000	893.7827834312	1.0000000000	0.0000000000	0.0000000000
0.4000000000	-0.4935214659	1.0000000000	0.9555947606	1.0000000000	0.0000000000	0.0000000000	64.6213989854	1.0000000000	938.2388339815	1.0000000000	0.0000000000	0.0000000000
0.4100000000	-0.5076677786	1.0000000000	0.5385562916	1.0000000000	0.0000000000	0.0000000000	73.2894460628	1.0000000000	980.2939848316	1.0000000000	0.0000000000	0.0000000000
0.4200000000	0.0000000000	1.0000000000	0.0000000000	1.0000000000	0.0000000000	0.0000000000	82.1559041687	1.0000000000	1018.9373719328	1.0000000000	0.0000000000	0.0000000000
0.4300000000	0.0000000000	1.0000000000	0.0000000000	1.0000000000	0.0000000000	0.0000000000	92.2544303275	1.0000000000	1053.6871705299	1.0000000000	0.0000000000	0.0000000000
0.4400000000	0.0000000000	1.0000000000	0.0000000000	1.0000000000	0.0000000000	0.0000000000	102.7024987052	1.0000000000	1084.9890714024	1.0000000000	0.0000000000	0.0000000000
0.4500000000	0.0000000000	1.0000000000	0.0000000000	1.0000000000	0.0000000000	0.0000000000	113.5080088362	1.0000000000	1113.3064110204	1.0000000000	0.0000000000	0.0000000000
0.4600000000	0.0000000000	1.0000000000	0.0000000000	1.0000000000	0.0000000000	0.0000000000	126.2296308693	1.0000000000	1137.4212592001	1.0000000000	0.0000000000	0.0000000000
0.4700000000	0.0000000000	1.0000000000	0.0000000000	1.0000000000	0.0000000000	0.0000000000	140.4788594041	1.0000000000	1155.1197955279	1.0000000000	0.0000000000	0.0000000000
0.4800000000	0.0000000000	1.0000000000	0.0000000000	1.0000000000	0.0000000000	0.0000000000	155.8994996043	1.0000000000	1164.7843074107	1.0000000000	0.0000000000	0.0000000000
0.4900000000	15.6588017858	1.0000000000	27.8477582184	1.0000000000	0.0000000000	0.0000000000	173.3645357105	1.0000000000	1164.5768328384	1.0000000000	0.0000000000	0.0000000000
0.5000000000	23.3782804125	1.0000000000	87.6790926472	1.0000000000	0.0000000000	0.0000000000	192.0067220081	1.0000000000	1151.1643578774	1.0000000000	0.0000000000	0.0000000000
0.5100000000	25.0327340553	1.0000000000	179.2676549520	1.0000000000	0.0000000000	0.0000000000	210.4000341485	1.0000000000	1120.8439776396	1.0000000000	0.0000000000	0.0000000000
0.5200000000	12.6203719056	1.0000000000	293.8432407424	1.0000000000	0.0000000000	0.0000000000	227.4648040394	1.0000000000	1070.7642337012	1.0000000000	0.0000000000	0.0000000000
0.5300000000	-17.3853371621	1.0000000000	414.4071590291	1.0000000000	0.0000000000	0.0000000000	239.5173129145	1.0000000000	998.4272026711	1.0000000000	0.0000000000	0.0000000000
0.5400000000	-56.5104865825	1.0000000000	525.3092184503	1.0000000000	0.0000000000	0.0000000000	243.0405336762	1.0000000000	902.2261632444	1.0000000000	0.0000000000	0.0000000000
0.5500000000	-92.5399646310	1.0000000000	618.9656181086	1.0000000000	0.0000000000	0.0000000000	236.7632238726	1.0000000000	783.6250138771	1.0000000000	0.0000000000	0.0000000000
0.5600000000	-122.1157857172	1.0000000000	695.2078134055	1.0000000000	0.0000000000	0.0000000000	217.7552802387	1.0000000000	647.9852611242	1.0000000000	0.0000000000	0.0000000000
0.5700000000	-146.5079891361	1.0000000000	758.1860650928	1.0000000000	0.0000000000	0.0000000000	184.9228651882	1.0000000000	504.3497162390	1.0000000000	0.0000000000	0.0000000000
0.5800000000	-165.9135131103	1.0000000000	815.0731113468	1.0000000000	0.0000000000	0.0000000000	142.8908502313	1.0000000000	365.7124176750	1.0000000000	0.0000000000	0.0000000000
0.5900000000	-181.9595445594	1.0000000000	872.5550228642	1.0000000000	0.0000000000	0.0000000000	97.8015225859	1.0000000000	245.4045169482	1.0000000000	0.0000000000	0.0000000000
0.6000000000	-194.7756842507	1.0000000000	932.5448229591	1.0000000000	0.0000000000	0.0000000000	56.5223733619	1.0000000000	150.5096263849	1.0000000000	0.0000000000	0.0000000000
0.6100000000	-202.5746231236	1.0000000000	993.1041406501	1.0000000000	0.0000000000	0.0000000000	25.6659887585	1.0000000000	81.6506098234	1.0000000000	0.0000000000	0.0000000000
